<?xml version="1.0" standalone="no"?>
<!DOCTYPE svg PUBLIC "-//W3C//DTD SVG 20010904//EN"
 "http://www.w3.org/TR/2001/REC-SVG-20010904/DTD/svg10.dtd">
<svg version="1.0" xmlns="http://www.w3.org/2000/svg"
 width="700.000000pt" height="700.000000pt" viewBox="0 0 700.000000 700.000000"
 preserveAspectRatio="xMidYMid meet">
<metadata>
Created by potrace 1.14, written by Peter Selinger 2001-2017
</metadata>
<g transform="translate(0.000000,700.000000) scale(0.100000,-0.100000)"
fill="#000000" stroke="none">
<path d="M3299 6965 c-2 -1 -39 -6 -82 -9 -105 -8 -170 -15 -237 -26 -30 -5
-71 -12 -90 -15 -19 -3 -42 -8 -50 -10 -8 -2 -31 -7 -50 -10 -68 -11 -298 -75
-411 -113 -554 -190 -1064 -528 -1462 -970 -389 -432 -695 -1044 -803 -1607
-4 -22 -8 -44 -9 -50 -9 -37 -35 -221 -40 -275 -3 -36 -8 -87 -11 -115 -8 -60
-8 -458 0 -500 2 -16 7 -64 11 -105 3 -41 8 -86 11 -100 2 -14 6 -38 8 -55 32
-247 133 -598 249 -865 325 -748 928 -1379 1644 -1720 60 -28 116 -55 125 -60
30 -17 242 -97 323 -123 269 -87 514 -135 821 -163 71 -6 441 -6 494 0 25 3
77 8 115 12 75 7 74 7 150 18 28 4 64 10 80 12 62 9 144 27 275 61 986 255
1804 925 2244 1838 72 149 146 337 185 470 18 61 37 121 42 135 4 14 14 48 20
75 14 67 16 73 27 125 6 25 13 65 17 90 3 25 8 52 10 60 2 8 7 39 10 69 4 30
8 63 10 73 26 134 25 687 -1 822 -4 20 -9 61 -20 139 -3 23 -7 49 -9 57 -2 8
-7 29 -10 45 -8 46 -22 110 -49 220 -105 427 -335 888 -629 1260 -469 595
-1106 1010 -1847 1204 -157 41 -315 70 -465 86 -33 4 -73 9 -90 11 -34 6 -501
15 -506 9z"/>
</g>
</svg>
